<svg width="40" height="40" fill="none" xmlns="http://www.w3.org/2000/svg"><path d="M32.044 10.52L21.556.623A2.285 2.285 0 0019.987 0a2.287 2.287 0 00-1.574.61L18.4.623 7.956 10.52H2.222c-.59 0-1.154.222-1.571.617-.417.394-.651.93-.651 1.489v25.268c0 .559.234 1.094.65 1.49.418.394.983.616 1.572.616h35.556c.59 0 1.154-.222 1.571-.617A2.05 2.05 0 0040 37.894V12.626c0-.559-.234-1.095-.65-1.49a2.286 2.286 0 00-1.572-.616h-5.734zM20 5.087l5.733 5.433H14.267L20 5.087zm15.556 30.701H4.444V14.732h31.112v21.057zm-20-14.74c0 .559-.235 1.095-.651 1.49a2.286 2.286 0 01-1.572.616 2.286 2.286 0 01-1.571-.617 2.051 2.051 0 01-.65-1.489c0-.558.233-1.094.65-1.488a2.286 2.286 0 011.571-.617c.59 0 1.155.222 1.572.616.416.395.65.931.65 1.49zm15.555 10.53H13.333l3.334-6.318 2.222 4.211 5.555-10.528 6.667 12.634z" fill="#fff"/></svg>