<svg width="30" height="30" fill="none" xmlns="http://www.w3.org/2000/svg"><path d="M24.033 7.89L16.167.467A1.714 1.714 0 0014.99 0a1.715 1.715 0 00-1.18.458l-.01.01L5.967 7.89h-4.3c-.442 0-.866.166-1.179.462A1.538 1.538 0 000 9.47v18.952c0 .419.176.82.488 1.116.313.297.737.463 1.179.463h26.666c.442 0 .866-.166 1.179-.463.312-.296.488-.697.488-1.116V9.469c0-.419-.176-.82-.488-1.117a1.714 1.714 0 00-1.179-.462h-4.3zM15 3.815l4.3 4.075h-8.6L15 3.815zm11.667 23.026H3.333V11.048h23.334v15.793zm-15-11.055c0 .42-.176.82-.489 1.117a1.715 1.715 0 01-1.178.463c-.442 0-.866-.167-1.179-.463a1.539 1.539 0 01-.488-1.117c0-.418.176-.82.488-1.116A1.715 1.715 0 0110 14.207c.442 0 .866.166 1.178.463.313.296.489.697.489 1.116zm11.666 7.897H10l2.5-4.738 1.667 3.159 4.166-7.897 5 9.476z" fill="#fff"/></svg>