<svg width="32" height="30" fill="none" xmlns="http://www.w3.org/2000/svg"><path d="M31.336 14.76L17.698 1.227 16.784.32a1.116 1.116 0 00-1.567 0L.663 14.759A2.236 2.236 0 000 16.371c.014 1.233 1.048 2.218 2.29 2.218h1.501V30h24.418V18.589h1.532a2.257 2.257 0 002.09-1.387c.112-.272.17-.565.169-.86 0-.595-.236-1.159-.664-1.583zm-13.36 12.717h-3.952V20.33h3.953v7.147zm7.692-11.411v11.411h-5.432V19.49c0-.774-.632-1.401-1.412-1.401h-5.648c-.78 0-1.412.627-1.412 1.401v7.988H6.332V16.066H2.944l13.06-12.953.815.81 12.24 12.143h-3.391z" fill="#fff"/></svg>