<svg width="44" height="44" fill="none" xmlns="http://www.w3.org/2000/svg"><path d="M40.67 21.7L24.067 5.104l-1.113-1.113a1.354 1.354 0 00-1.907 0L3.33 21.699a2.746 2.746 0 00-.807 1.977c.017 1.512 1.276 2.72 2.788 2.72h1.826V40.39h29.726V26.396h1.865c.735 0 1.427-.288 1.947-.808a2.734 2.734 0 00.803-1.947c0-.73-.288-1.422-.808-1.942zM24.407 37.296h-4.813V28.53h4.813v8.766zm9.363-13.995v13.995h-6.613V27.5c0-.95-.77-1.719-1.72-1.719h-6.874c-.95 0-1.719.77-1.719 1.719v9.797h-6.613V23.302H6.106L22.005 7.416l.992.993L37.9 23.302h-4.13z" fill="#fff"/></svg>