<svg width="30" height="30" fill="none" xmlns="http://www.w3.org/2000/svg"><path fill-rule="evenodd" clip-rule="evenodd" d="M8.816.09C10.416.016 10.926 0 15 0c4.075 0 4.584.018 6.183.09 1.598.072 2.689.327 3.643.697a7.38 7.38 0 012.657 1.732 7.325 7.325 0 011.729 2.655c.37.954.624 2.045.698 3.64.074 1.603.09 2.113.09 6.186 0 4.075-.018 4.584-.09 6.184-.072 1.595-.327 2.686-.698 3.641a7.358 7.358 0 01-1.73 2.658 7.353 7.353 0 01-2.656 1.729c-.954.37-2.045.624-3.64.698-1.602.074-2.111.09-6.186.09-4.075 0-4.585-.018-6.184-.09-1.596-.072-2.686-.327-3.641-.698a7.36 7.36 0 01-2.658-1.73 7.353 7.353 0 01-1.73-2.656c-.37-.954-.623-2.045-.697-3.64C.016 19.582 0 19.073 0 15c0-4.075.018-4.585.09-6.183.072-1.598.327-2.689.697-3.643a7.347 7.347 0 011.732-2.657A7.353 7.353 0 015.174.787C6.128.417 7.219.164 8.814.09h.002zm12.245 2.7c-1.581-.072-2.056-.087-6.061-.087s-4.48.015-6.061.087c-1.464.067-2.257.31-2.786.517-.7.273-1.2.596-1.725 1.12a4.653 4.653 0 00-1.121 1.726c-.206.529-.45 1.322-.517 2.786-.072 1.582-.087 2.056-.087 6.061s.015 4.48.087 6.061c.067 1.463.31 2.257.517 2.786.24.65.623 1.241 1.12 1.725a4.66 4.66 0 001.726 1.121c.529.206 1.322.45 2.786.517 1.582.072 2.055.087 6.061.087s4.48-.015 6.061-.087c1.463-.067 2.257-.31 2.786-.517.7-.273 1.2-.596 1.725-1.12a4.657 4.657 0 001.121-1.726c.206-.529.45-1.323.517-2.786.072-1.581.087-2.056.087-6.061s-.015-4.48-.087-6.061c-.067-1.464-.31-2.257-.517-2.786-.273-.7-.596-1.2-1.12-1.725a4.654 4.654 0 00-1.726-1.121c-.529-.206-1.323-.45-2.786-.517zm-7.977 16.834a5.003 5.003 0 005.455-8.163 5.004 5.004 0 10-5.455 8.163zM9.548 9.548a7.71 7.71 0 1110.904 10.904A7.71 7.71 0 019.548 9.548zm14.872-1.11a1.824 1.824 0 10-2.504-2.654 1.824 1.824 0 002.504 2.654z" fill="#fff"/></svg>