<svg width="42" height="42" fill="none" xmlns="http://www.w3.org/2000/svg"><path fill-rule="evenodd" clip-rule="evenodd" d="M12.685.954C14.836.855 15.522.834 21 .834s6.163.023 8.312.12c2.149.097 3.615.44 4.899.937a9.921 9.921 0 013.571 2.328 9.85 9.85 0 012.325 3.57c.498 1.283.84 2.75.938 4.895.1 2.154.121 2.84.121 8.316 0 5.478-.023 6.164-.12 8.314-.098 2.145-.44 3.612-.94 4.895a9.892 9.892 0 01-2.324 3.573 9.888 9.888 0 01-3.571 2.325c-1.284.499-2.75.84-4.895.939-2.153.099-2.838.12-8.316.12-5.478 0-6.164-.023-8.315-.12-2.145-.097-3.611-.44-4.894-.939a9.895 9.895 0 01-3.574-2.325 9.886 9.886 0 01-2.326-3.571c-.497-1.283-.838-2.75-.937-4.895C.855 27.162.833 26.476.833 21c0-5.478.024-6.164.121-8.312.097-2.149.44-3.616.937-4.899a9.893 9.893 0 012.328-3.571A9.885 9.885 0 017.79 1.89c1.283-.497 2.75-.838 4.895-.937h.002zm16.464 3.63c-2.127-.097-2.765-.117-8.15-.117-5.384 0-6.022.02-8.148.117-1.968.09-3.035.418-3.746.695-.94.367-1.613.801-2.32 1.507a6.255 6.255 0 00-1.506 2.32c-.277.71-.605 1.778-.695 3.745-.097 2.126-.117 2.764-.117 8.149 0 5.384.02 6.023.117 8.15.09 1.966.418 3.033.695 3.745a6.26 6.26 0 001.507 2.319 6.259 6.259 0 002.319 1.507c.711.277 1.778.605 3.745.695 2.127.097 2.763.117 8.15.117 5.386 0 6.022-.02 8.149-.117 1.967-.09 3.034-.418 3.745-.695.94-.367 1.614-.801 2.32-1.507a6.26 6.26 0 001.507-2.32c.276-.71.605-1.778.694-3.745.098-2.127.118-2.765.118-8.149 0-5.384-.02-6.023-.118-8.15-.09-1.966-.418-3.033-.694-3.745-.367-.94-.802-1.613-1.507-2.319a6.257 6.257 0 00-2.32-1.507c-.711-.277-1.778-.605-3.745-.695zM18.424 27.217a6.727 6.727 0 007.333-10.974 6.73 6.73 0 10-7.333 10.974zM13.67 13.67a10.367 10.367 0 0116.906 11.297A10.364 10.364 0 0113.67 28.33a10.366 10.366 0 010-14.66zm19.994-1.492a2.45 2.45 0 10-3.363-3.566 2.45 2.45 0 003.363 3.566z" fill="#fff"/></svg>