<svg width="47" height="40" fill="none" xmlns="http://www.w3.org/2000/svg"><path d="M1 0v40M46 0v40" stroke="#fff"/><path d="M38.667 3.333H19.11V8.89h2.444V5.556h17.112c.733 0 1.222.444 1.222 1.11V18.89c0 .666-.49 1.111-1.222 1.111h-15.89v7.778H16.3L11.778 31v-3.222H8.11c-.733 0-1.222-.445-1.222-1.111V14.444c0-.666.489-1.11 1.222-1.11H24V11.11H8.11c-2.078 0-3.667 1.444-3.667 3.333v12.223c0 1.888 1.59 3.333 3.667 3.333h1.222v5.667l7.7-5.667h8.19v-7.778h13.444c2.077 0 3.666-1.444 3.666-3.333V6.667c0-1.89-1.589-3.334-3.666-3.334z" fill="#fff"/><path d="M9.578 25.444h2.934l.733-1.777h3.789l.733 1.777H20.7l-4.155-9.888H13.61l-4.033 9.888zm5.5-7.11l1.222 3.444h-2.444l1.222-3.445z" fill="#2F2440"/><path d="M26.444 18.889c1.345 0 3.178-.333 4.89-1.111 1.71.778 3.666 1.11 4.888 1.11v-2.221s-1.222 0-2.567-.445c1.467-1.333 2.567-3.333 2.567-6.222V8.889h-3.667V6.667h-2.444v2.222h-3.667v2.222h7.211c-.244 2-1.222 3.222-2.322 4-.733-.555-1.466-1.333-1.955-2.333H26.81c.489 1.444 1.222 2.555 2.2 3.444-1.222.445-2.322.445-2.567.445v2.222z" fill="#BC1F3D"/></svg>