<svg width="37" height="30" fill="none" xmlns="http://www.w3.org/2000/svg"><path d="M1 0v30M36 0v30" stroke="#fff"/><path d="M30.296 2.5h-15.21v4.167h1.901v-2.5h13.309c.57 0 .95.333.95.833v9.167c0 .5-.38.833-.95.833H17.938v5.833H12.9L9.382 23.25v-2.417H6.531c-.57 0-.951-.333-.951-.833v-9.167c0-.5.38-.833.95-.833h12.36V8.333H6.53c-1.616 0-2.852 1.084-2.852 2.5V20c0 1.417 1.236 2.5 2.852 2.5h.95v4.25l5.99-4.25h6.368v-5.833h10.457c1.616 0 2.852-1.084 2.852-2.5V5c0-1.417-1.236-2.5-2.852-2.5z" fill="#fff"/><path d="M7.67 19.083h2.282l.57-1.333h2.948l.57 1.333h2.282l-3.233-7.416h-2.281L7.67 19.083zm4.279-5.333l.95 2.583H11l.95-2.583z" fill="#2F2440"/><path d="M20.79 14.167c1.046 0 2.472-.25 3.803-.834 1.33.584 2.851.834 3.802.834V12.5s-.95 0-1.996-.333c1.14-1 1.996-2.5 1.996-4.667v-.833h-2.852V5h-1.901v1.667H20.79v1.666h5.609c-.19 1.5-.95 2.417-1.806 3-.57-.416-1.141-1-1.521-1.75h-1.997c.38 1.084.95 1.917 1.711 2.584-.95.333-1.806.333-1.996.333v1.667z" fill="#BC1F3D"/></svg>