<svg width="1222" height="5998" fill="none" xmlns="http://www.w3.org/2000/svg"><path fill-rule="evenodd" clip-rule="evenodd" d="M872.857 0l-58.19 249.917C756.476 499.833 640.095 999.667 669.19 1499.5c29.096 499.83 203.667 999.67 29.096 1499.5C523.714 3498.83 0 3998.67 0 4498.5c0 499.83 523.714 999.67 785.571 1249.58L1047.43 5998H1222V0H872.857z" fill="#BA0F30"/><path fill-rule="evenodd" clip-rule="evenodd" d="M872.857 0l-58.19 249.917C756.476 499.833 640.095 999.667 669.19 1499.5c29.096 499.83 203.667 999.67 29.096 1499.5C523.714 3498.83 0 3998.67 0 4498.5c0 499.83 523.714 999.67 785.571 1249.58L1047.43 5998H1222V0H872.857z" fill="url(#paint0_linear)"/><path clip-rule="evenodd" d="M872.857 0l-58.19 249.917C756.476 499.833 640.095 999.667 669.19 1499.5c29.096 499.83 203.667 999.67 29.096 1499.5C523.714 3498.83 0 3998.67 0 4498.5c0 499.83 523.714 999.67 785.571 1249.58L1047.43 5998H1222V0H872.857z" stroke="#000"/><defs><linearGradient id="paint0_linear" x1="1222" y1="2999" x2="0" y2="2999" gradientUnits="userSpaceOnUse"><stop stop-color="#2F2440"/><stop offset="1" stop-color="#fff" stop-opacity="0"/></linearGradient></defs></svg>