<svg width="34" height="20" fill="none" xmlns="http://www.w3.org/2000/svg"><path fill-rule="evenodd" clip-rule="evenodd" d="M33.22 1.354C33.455.574 33.22 0 32.094 0h-3.719c-.946 0-1.382.496-1.619 1.043 0 0-1.891 4.566-4.57 7.531-.867.86-1.26 1.133-1.734 1.133-.237 0-.592-.273-.592-1.054V1.354C19.86.417 19.6 0 18.81 0h-5.847c-.591 0-.947.434-.947.847 0 .887 1.34 1.093 1.478 3.59v5.426c0 1.19-.217 1.406-.69 1.406-1.26 0-4.328-4.588-6.148-9.836C6.304.41 5.947 0 4.997 0H1.274C.212 0 0 .496 0 1.043c0 .974 1.26 5.814 5.872 12.216C8.946 17.63 13.274 20 17.216 20c2.365 0 2.657-.526 2.657-1.433v-3.304c0-1.053.223-1.263.973-1.263.552 0 1.497.274 3.704 2.381C27.072 18.88 27.487 20 28.907 20h3.718c1.063 0 1.595-.526 1.29-1.566-.338-1.034-1.542-2.535-3.139-4.317-.866-1.014-2.167-2.107-2.562-2.654-.551-.702-.394-1.014 0-1.639 0 0 4.533-6.323 5.005-8.47h.001z" fill="#fff"/></svg>