<svg width="44" height="26" fill="none" xmlns="http://www.w3.org/2000/svg"><path fill-rule="evenodd" clip-rule="evenodd" d="M42.992 1.905c.304-1.001 0-1.738-1.458-1.738h-4.812c-1.225 0-1.79.636-2.096 1.338 0 0-2.447 5.86-5.914 9.665-1.122 1.104-1.632 1.454-2.244 1.454-.306 0-.767-.35-.767-1.353V1.905c0-1.203-.337-1.738-1.356-1.738h-7.568c-.765 0-1.225.557-1.225 1.087 0 1.138 1.735 1.402 1.912 4.607v6.963c0 1.527-.28 1.804-.892 1.804-1.632 0-5.601-5.887-7.957-12.623C8.158.695 7.696.167 6.466.167H1.65C.275.167 0 .803 0 1.505c0 1.25 1.632 7.462 7.6 15.677 3.978 5.61 9.578 8.651 14.68 8.651 3.06 0 3.438-.674 3.438-1.838v-4.241c0-1.351.29-1.62 1.26-1.62.714 0 1.937.351 4.794 3.055 3.263 3.207 3.8 4.644 5.637 4.644h4.813c1.375 0 2.064-.674 1.668-2.009-.436-1.327-1.995-3.254-4.06-5.54-1.123-1.302-2.806-2.704-3.317-3.407-.713-.9-.51-1.301 0-2.103 0 0 5.866-8.114 6.477-10.87h.002z" fill="#fff"/></svg>