<svg width="30" height="30" viewBox="0 0 30 30" fill="none" xmlns="http://www.w3.org/2000/svg">
<path d="M24.0333 7.88985L16.1667 0.467154C15.8554 0.169822 15.4323 0.00179121 14.9904 1.42377e-05C14.5485 -0.00176274 14.1239 0.16286 13.81 0.457679L13.8 0.467154L5.96667 7.88985H1.66667C1.22464 7.88985 0.800716 8.05624 0.488155 8.35241C0.175595 8.64859 0 9.05029 0 9.46914V28.4207C0 28.8396 0.175595 29.2413 0.488155 29.5374C0.800716 29.8336 1.22464 30 1.66667 30H28.3333C28.7754 30 29.1993 29.8336 29.5118 29.5374C29.8244 29.2413 30 28.8396 30 28.4207V9.46914C30 9.05029 29.8244 8.64859 29.5118 8.35241C29.1993 8.05624 28.7754 7.88985 28.3333 7.88985H24.0333ZM15 3.81526L19.3 7.88985H10.7L15 3.81526ZM26.6667 26.8414H3.33333V11.0484H26.6667V26.8414ZM11.6667 15.7863C11.6667 16.2052 11.4911 16.6069 11.1785 16.9031C10.866 17.1992 10.442 17.3656 10 17.3656C9.55797 17.3656 9.13405 17.1992 8.82149 16.9031C8.50893 16.6069 8.33333 16.2052 8.33333 15.7863C8.33333 15.3675 8.50893 14.9658 8.82149 14.6696C9.13405 14.3734 9.55797 14.207 10 14.207C10.442 14.207 10.866 14.3734 11.1785 14.6696C11.4911 14.9658 11.6667 15.3675 11.6667 15.7863V15.7863ZM23.3333 23.6828H10L12.5 18.9449L14.1667 22.1035L18.3333 14.207L23.3333 23.6828Z" fill="white"/>
</svg>
