<svg width="40" height="40" viewBox="0 0 40 40" fill="none" xmlns="http://www.w3.org/2000/svg">
<path d="M32.0444 10.5198L21.5556 0.622873C21.1406 0.226429 20.5765 0.00238828 19.9872 1.89837e-05C19.398 -0.00235032 18.8318 0.217146 18.4133 0.610238L18.4 0.622873L7.95556 10.5198H2.22222C1.63285 10.5198 1.06762 10.7417 0.650874 11.1366C0.234126 11.5315 0 12.0671 0 12.6255V37.8943C0 38.4527 0.234126 38.9883 0.650874 39.3832C1.06762 39.7781 1.63285 40 2.22222 40H37.7778C38.3671 40 38.9324 39.7781 39.3491 39.3832C39.7659 38.9883 40 38.4527 40 37.8943V12.6255C40 12.0671 39.7659 11.5315 39.3491 11.1366C38.9324 10.7417 38.3671 10.5198 37.7778 10.5198H32.0444ZM20 5.08702L25.7333 10.5198H14.2667L20 5.08702ZM35.5556 35.7885H4.44444V14.7313H35.5556V35.7885ZM15.5556 21.0484C15.5556 21.6069 15.3214 22.1425 14.9047 22.5374C14.4879 22.9323 13.9227 23.1542 13.3333 23.1542C12.744 23.1542 12.1787 22.9323 11.762 22.5374C11.3452 22.1425 11.1111 21.6069 11.1111 21.0484C11.1111 20.49 11.3452 19.9544 11.762 19.5595C12.1787 19.1646 12.744 18.9427 13.3333 18.9427C13.9227 18.9427 14.4879 19.1646 14.9047 19.5595C15.3214 19.9544 15.5556 20.49 15.5556 21.0484V21.0484ZM31.1111 31.5771H13.3333L16.6667 25.2599L18.8889 29.4714L24.4444 18.9427L31.1111 31.5771Z" fill="white"/>
</svg>
