<svg width="36" height="38" viewBox="0 0 36 38" fill="none" xmlns="http://www.w3.org/2000/svg">
<path d="M28.84 9.9916L19.4 0.591598C19.0265 0.21506 18.5188 0.00226837 17.9885 1.80305e-05C17.4582 -0.00223231 16.9486 0.206243 16.572 0.579598L16.56 0.591598L7.16 9.9916H2C1.46957 9.9916 0.960859 10.2023 0.585786 10.5774C0.210714 10.9525 0 11.4612 0 11.9916V35.9916C0 36.522 0.210714 37.0307 0.585786 37.4058C0.960859 37.7809 1.46957 37.9916 2 37.9916H34C34.5304 37.9916 35.0391 37.7809 35.4142 37.4058C35.7893 37.0307 36 36.522 36 35.9916V11.9916C36 11.4612 35.7893 10.9525 35.4142 10.5774C35.0391 10.2023 34.5304 9.9916 34 9.9916H28.84ZM18 4.8316L23.16 9.9916H12.84L18 4.8316ZM32 33.9916H4V13.9916H32V33.9916ZM14 19.9916C14 20.522 13.7893 21.0307 13.4142 21.4058C13.0391 21.7809 12.5304 21.9916 12 21.9916C11.4696 21.9916 10.9609 21.7809 10.5858 21.4058C10.2107 21.0307 10 20.522 10 19.9916C10 19.4612 10.2107 18.9525 10.5858 18.5774C10.9609 18.2023 11.4696 17.9916 12 17.9916C12.5304 17.9916 13.0391 18.2023 13.4142 18.5774C13.7893 18.9525 14 19.4612 14 19.9916V19.9916ZM28 29.9916H12L15 23.9916L17 27.9916L22 17.9916L28 29.9916Z" fill="black"/>
</svg>
