<svg width="18" height="12" viewBox="0 0 18 12" fill="none" xmlns="http://www.w3.org/2000/svg">
<path d="M16.6031 4.42413C16.6959 4.48876 16.7718 4.57488 16.8241 4.67514C16.8765 4.77541 16.9038 4.88685 16.9038 4.99996C16.9038 5.11307 16.8765 5.22451 16.8241 5.32478C16.7718 5.42504 16.6959 5.51116 16.6031 5.57579C15.2989 6.52996 12.3848 8.33329 8.99976 8.33329C5.61476 8.33329 2.7006 6.52996 1.39643 5.57579C1.3036 5.51116 1.22778 5.42504 1.17541 5.32478C1.12305 5.22451 1.0957 5.11307 1.0957 4.99996C1.0957 4.88685 1.12305 4.77541 1.17541 4.67514C1.22778 4.57488 1.3036 4.48876 1.39643 4.42413C2.7006 3.46996 5.61476 1.66663 8.99976 1.66663C12.3848 1.66663 15.2989 3.46996 16.6031 4.42413V4.42413Z" stroke="black" stroke-width="1.66667" stroke-linecap="round" stroke-linejoin="round"/>
<path d="M9 8.33325V10.8333" stroke="black" stroke-width="1.66667" stroke-linecap="round" stroke-linejoin="round"/>
<path d="M14.833 6.66663L16.4997 8.74996" stroke="black" stroke-width="1.66667" stroke-linecap="round" stroke-linejoin="round"/>
<path d="M12.333 7.91663L13.1663 10.4166" stroke="black" stroke-width="1.66667" stroke-linecap="round" stroke-linejoin="round"/>
<path d="M4.83301 10.4166L5.66634 7.91663" stroke="black" stroke-width="1.66667" stroke-linecap="round" stroke-linejoin="round"/>
<path d="M3.16667 6.66663L1.5 8.74996" stroke="black" stroke-width="1.66667" stroke-linecap="round" stroke-linejoin="round"/>
</svg>
