<svg width="32" height="30" viewBox="0 0 32 30" fill="none" xmlns="http://www.w3.org/2000/svg">
<path d="M31.3364 14.7592L17.6978 1.22811L16.7836 0.320671C16.5754 0.115276 16.2937 0 16.0001 0C15.7065 0 15.4248 0.115276 15.2165 0.320671L0.663721 14.7592C0.450287 14.9702 0.281606 15.2215 0.167636 15.4984C0.0536655 15.7752 -0.00328479 16.0718 0.000146303 16.3708C0.0142649 17.6041 1.04845 18.5886 2.29089 18.5886H3.79099V30H28.2091V18.5886H29.741C30.3446 18.5886 30.9128 18.3539 31.3399 17.93C31.5502 17.7219 31.7169 17.4745 31.8302 17.202C31.9434 16.9296 32.0012 16.6375 32 16.3428C32 15.7472 31.7635 15.1831 31.3364 14.7592V14.7592ZM17.9767 27.4774H14.0235V20.33H17.9767V27.4774ZM25.6678 16.066V27.4774H20.2356V19.4891C20.2356 18.7148 19.6038 18.0876 18.8238 18.0876H13.1763C12.3963 18.0876 11.7645 18.7148 11.7645 19.4891V27.4774H6.33234V16.066H2.94388L16.0036 3.11307L16.8189 3.92241L29.0598 16.066H25.6678Z" fill="white"/>
</svg>
