<svg width="44" height="44" viewBox="0 0 44 44" fill="none" xmlns="http://www.w3.org/2000/svg">
<path d="M40.6703 21.6992L24.0672 5.10467L22.9543 3.99178C22.7007 3.73989 22.3578 3.59851 22.0004 3.59851C21.643 3.59851 21.3 3.73989 21.0465 3.99178L3.33045 21.6992C3.07062 21.958 2.86528 22.2663 2.72653 22.6057C2.58779 22.9452 2.51846 23.3091 2.52264 23.6758C2.53983 25.1883 3.79881 26.3957 5.31131 26.3957H7.13748V40.3906H36.8633V26.3957H38.7281C39.4629 26.3957 40.1547 26.1078 40.6746 25.5879C40.9306 25.3327 41.1334 25.0293 41.2714 24.6951C41.4093 24.361 41.4796 24.0029 41.4781 23.6414C41.4781 22.9109 41.1902 22.2191 40.6703 21.6992V21.6992ZM24.4066 37.2969H19.5941V28.5312H24.4066V37.2969ZM33.7695 23.3019V37.2969H27.1566V27.5C27.1566 26.5504 26.3875 25.7812 25.4379 25.7812H18.5629C17.6133 25.7812 16.8441 26.5504 16.8441 27.5V37.2969H10.2312V23.3019H6.10623L22.0047 7.41639L22.9972 8.40897L37.8988 23.3019H33.7695Z" fill="white"/>
</svg>
