<svg width="42" height="42" viewBox="0 0 42 42" fill="none" xmlns="http://www.w3.org/2000/svg">
<path fill-rule="evenodd" clip-rule="evenodd" d="M12.6855 0.954313C14.836 0.855313 15.5217 0.833313 20.9997 0.833313C26.4777 0.833313 27.1633 0.857146 29.312 0.954313C31.4607 1.05148 32.9273 1.39431 34.2107 1.89115C35.5545 2.39898 36.7737 3.19281 37.782 4.21948C38.8087 5.22598 39.6007 6.44331 40.1067 7.78898C40.6053 9.07231 40.9463 10.539 41.0453 12.684C41.1443 14.8381 41.1663 15.5238 41.1663 21C41.1663 26.478 41.1425 27.1636 41.0453 29.3141C40.9482 31.4591 40.6053 32.9258 40.1067 34.2091C39.6007 35.555 38.8074 36.7743 37.782 37.7823C36.7737 38.809 35.5545 39.601 34.2107 40.107C32.9273 40.6057 31.4607 40.9466 29.3157 41.0456C27.1633 41.1446 26.4777 41.1666 20.9997 41.1666C15.5217 41.1666 14.836 41.1428 12.6855 41.0456C10.5405 40.9485 9.07384 40.6057 7.79051 40.107C6.4447 39.6009 5.22535 38.8076 4.21734 37.7823C3.19137 36.7752 2.39742 35.5564 1.89084 34.211C1.39401 32.9276 1.05301 31.461 0.954008 29.316C0.855008 27.1618 0.833008 26.4761 0.833008 21C0.833008 15.522 0.856841 14.8363 0.954008 12.6876C1.05117 10.539 1.39401 9.07231 1.89084 7.78898C2.39817 6.44346 3.19273 5.22472 4.21917 4.21765C5.22575 3.1919 6.44387 2.39796 7.78868 1.89115C9.07201 1.39431 10.5387 1.05331 12.6837 0.954313H12.6855ZM29.1488 4.58431C27.0222 4.48715 26.3842 4.46698 20.9997 4.46698C15.6152 4.46698 14.9772 4.48715 12.8505 4.58431C10.8833 4.67415 9.81634 5.00231 9.10501 5.27915C8.16451 5.64581 7.49168 6.08031 6.78584 6.78615C6.11676 7.43708 5.60184 8.2295 5.27884 9.10531C5.00201 9.81665 4.67384 10.8836 4.58401 12.8508C4.48684 14.9775 4.46668 15.6155 4.46668 21C4.46668 26.3845 4.48684 27.0225 4.58401 29.1491C4.67384 31.1163 5.00201 32.1833 5.27884 32.8947C5.60151 33.7692 6.11668 34.563 6.78584 35.2138C7.43668 35.883 8.23051 36.3982 9.10501 36.7208C9.81634 36.9977 10.8833 37.3258 12.8505 37.4157C14.9772 37.5128 15.6133 37.533 20.9997 37.533C26.386 37.533 27.0222 37.5128 29.1488 37.4157C31.116 37.3258 32.183 36.9977 32.8943 36.7208C33.8348 36.3542 34.5077 35.9196 35.2135 35.2138C35.8827 34.563 36.3978 33.7692 36.7205 32.8947C36.9973 32.1833 37.3255 31.1163 37.4153 29.1491C37.5125 27.0225 37.5327 26.3845 37.5327 21C37.5327 15.6155 37.5125 14.9775 37.4153 12.8508C37.3255 10.8836 36.9973 9.81665 36.7205 9.10531C36.3538 8.16481 35.9193 7.49198 35.2135 6.78615C34.5625 6.11711 33.7701 5.6022 32.8943 5.27915C32.183 5.00231 31.116 4.67415 29.1488 4.58431V4.58431ZM18.4238 27.2168C19.8624 27.8156 21.4642 27.8965 22.9557 27.4455C24.4472 26.9945 25.7359 26.0397 26.6016 24.7441C27.4674 23.4485 27.8564 21.8926 27.7024 20.342C27.5484 18.7914 26.8609 17.3424 25.7572 16.2425C25.0536 15.5394 24.2029 15.001 23.2663 14.6661C22.3297 14.3312 21.3305 14.2081 20.3406 14.3058C19.3507 14.4034 18.3948 14.7193 17.5416 15.2307C16.6885 15.7421 15.9594 16.4363 15.4067 17.2634C14.8541 18.0904 14.4917 19.0297 14.3456 20.0136C14.1996 20.9975 14.2735 22.0015 14.562 22.9534C14.8505 23.9053 15.3466 24.7814 16.0143 25.5186C16.6821 26.2558 17.505 26.8358 18.4238 27.2168ZM13.67 13.6703C14.6326 12.7078 15.7753 11.9442 17.0329 11.4233C18.2905 10.9024 19.6384 10.6343 20.9997 10.6343C22.3609 10.6343 23.7088 10.9024 24.9665 11.4233C26.2241 11.9442 27.3668 12.7078 28.3293 13.6703C29.2919 14.6329 30.0554 15.7756 30.5763 17.0332C31.0973 18.2908 31.3654 19.6387 31.3654 21C31.3654 22.3612 31.0973 23.7091 30.5763 24.9668C30.0554 26.2244 29.2919 27.3671 28.3293 28.3296C26.3854 30.2736 23.7488 31.3657 20.9997 31.3657C18.2505 31.3657 15.614 30.2736 13.67 28.3296C11.7261 26.3857 10.634 23.7491 10.634 21C10.634 18.2508 11.7261 15.6143 13.67 13.6703V13.6703ZM33.6643 12.178C33.9029 11.953 34.0938 11.6824 34.2259 11.3823C34.358 11.0821 34.4285 10.7586 34.4333 10.4307C34.4381 10.1028 34.377 9.77732 34.2537 9.47347C34.1305 9.16961 33.9475 8.89358 33.7156 8.66172C33.4837 8.42985 33.2077 8.24687 32.9039 8.1236C32.6 8.00032 32.2745 7.93927 31.9466 7.94405C31.6188 7.94883 31.2952 8.01935 30.9951 8.15142C30.6949 8.2835 30.4244 8.47446 30.1993 8.71298C29.7617 9.17687 29.5222 9.79304 29.5315 10.4307C29.5408 11.0683 29.7982 11.6773 30.2491 12.1282C30.7001 12.5791 31.309 12.8366 31.9466 12.8459C32.5843 12.8552 33.2005 12.6156 33.6643 12.178V12.178Z" fill="white"/>
</svg>
