<svg width="37" height="30" viewBox="0 0 37 30" fill="none" xmlns="http://www.w3.org/2000/svg">
<path d="M1 0V30M36 0V30" stroke="white"/>
<path d="M30.296 2.5H15.0861V6.66667H16.9874V4.16667H30.296C30.8664 4.16667 31.2466 4.5 31.2466 5V14.1667C31.2466 14.6667 30.8664 15 30.296 15H17.938V20.8333H12.8997L9.38242 23.25V20.8333H6.53056C5.96019 20.8333 5.57995 20.5 5.57995 20V10.8333C5.57995 10.3333 5.96019 10 6.53056 10H18.8886V8.33333H6.53056C4.91451 8.33333 3.67871 9.41667 3.67871 10.8333V20C3.67871 21.4167 4.91451 22.5 6.53056 22.5H7.48118V26.75L13.4701 22.5H19.8392V16.6667H30.296C31.912 16.6667 33.1478 15.5833 33.1478 14.1667V5C33.1478 3.58333 31.912 2.5 30.296 2.5Z" fill="white"/>
<path d="M7.6709 19.0834H9.95238L10.5228 17.75H13.4697L14.04 19.0834H16.3215L13.0894 11.6667H10.8079L7.6709 19.0834ZM11.9487 13.75L12.8993 16.3334H10.9981L11.9487 13.75Z" fill="#2F2440"/>
<path d="M20.79 14.1667C21.8357 14.1667 23.2616 13.9167 24.5925 13.3333C25.9234 13.9167 27.4444 14.1667 28.395 14.1667V12.5C28.395 12.5 27.4444 12.5 26.3987 12.1667C27.5394 11.1667 28.395 9.66667 28.395 7.5V6.66667H25.5431V5H23.6419V6.66667H20.79V8.33333H26.3987C26.2086 9.83333 25.4481 10.75 24.5925 11.3333C24.0221 10.9167 23.4518 10.3333 23.0715 9.58333H21.0752C21.4555 10.6667 22.0258 11.5 22.7863 12.1667C21.8357 12.5 20.9802 12.5 20.79 12.5V14.1667V14.1667Z" fill="#BC1F3D"/>
</svg>
