<svg width="47" height="40" viewBox="0 0 47 40" fill="none" xmlns="http://www.w3.org/2000/svg">
<path d="M1 0V40M46 0V40" stroke="white"/>
<path d="M38.6666 3.33331H19.111V8.88887H21.5554V5.55554H38.6666C39.3999 5.55554 39.8888 5.99998 39.8888 6.66665V18.8889C39.8888 19.5555 39.3999 20 38.6666 20H22.7777V27.7778H16.2999L11.7777 31V27.7778H8.111C7.37767 27.7778 6.88878 27.3333 6.88878 26.6666V14.4444C6.88878 13.7778 7.37767 13.3333 8.111 13.3333H23.9999V11.1111H8.111C6.03322 11.1111 4.44434 12.5555 4.44434 14.4444V26.6666C4.44434 28.5555 6.03322 30 8.111 30H9.33323V35.6666L17.0332 30H25.2221V22.2222H38.6666C40.7443 22.2222 42.3332 20.7778 42.3332 18.8889V6.66665C42.3332 4.77776 40.7443 3.33331 38.6666 3.33331Z" fill="white"/>
<path d="M9.57812 25.4444H12.5115L13.2448 23.6667H17.0337L17.767 25.4444H20.7003L16.5448 15.5555H13.6115L9.57812 25.4444ZM15.0781 18.3333L16.3003 21.7778H13.8559L15.0781 18.3333Z" fill="#2F2440"/>
<path d="M26.4443 18.8889C27.7888 18.8889 29.6221 18.5556 31.3332 17.7778C33.0443 18.5556 34.9999 18.8889 36.2221 18.8889V16.6667C36.2221 16.6667 34.9999 16.6667 33.6554 16.2222C35.1221 14.8889 36.2221 12.8889 36.2221 10V8.88891H32.5554V6.66669H30.111V8.88891H26.4443V11.1111H33.6554C33.411 13.1111 32.4332 14.3334 31.3332 15.1111C30.5999 14.5556 29.8666 13.7778 29.3777 12.7778H26.811C27.2999 14.2222 28.0332 15.3334 29.011 16.2222C27.7888 16.6667 26.6888 16.6667 26.4443 16.6667V18.8889V18.8889Z" fill="#BC1F3D"/>
</svg>
