<svg width="1222" height="5998" viewBox="0 0 1222 5998" fill="none" xmlns="http://www.w3.org/2000/svg">
<path fill-rule="evenodd" clip-rule="evenodd" d="M872.857 0L814.667 249.917C756.476 499.833 640.095 999.667 669.19 1499.5C698.286 1999.33 872.857 2499.17 698.286 2999C523.714 3498.83 0 3998.67 0 4498.5C0 4998.33 523.714 5498.17 785.571 5748.08L1047.43 5998H1222L1222 5748.08C1222 5498.17 1222 4998.33 1222 4498.5C1222 3998.67 1222 3498.83 1222 2999C1222 2499.17 1222 1999.33 1222 1499.5C1222 999.667 1222 499.833 1222 249.917V0L872.857 0Z" fill="#BA0F30"/>
<path fill-rule="evenodd" clip-rule="evenodd" d="M872.857 0L814.667 249.917C756.476 499.833 640.095 999.667 669.19 1499.5C698.286 1999.33 872.857 2499.17 698.286 2999C523.714 3498.83 0 3998.67 0 4498.5C0 4998.33 523.714 5498.17 785.571 5748.08L1047.43 5998H1222L1222 5748.08C1222 5498.17 1222 4998.33 1222 4498.5C1222 3998.67 1222 3498.83 1222 2999C1222 2499.17 1222 1999.33 1222 1499.5C1222 999.667 1222 499.833 1222 249.917V0L872.857 0Z" fill="url(#paint0_linear)"/>
<path fill-rule="evenodd" clip-rule="evenodd" d="M872.857 0L814.667 249.917C756.476 499.833 640.095 999.667 669.19 1499.5C698.286 1999.33 872.857 2499.17 698.286 2999C523.714 3498.83 0 3998.67 0 4498.5C0 4998.33 523.714 5498.17 785.571 5748.08L1047.43 5998H1222L1222 5748.08C1222 5498.17 1222 4998.33 1222 4498.5C1222 3998.67 1222 3498.83 1222 2999C1222 2499.17 1222 1999.33 1222 1499.5C1222 999.667 1222 499.833 1222 249.917V0L872.857 0Z" stroke="black"/>
<defs>
<linearGradient id="paint0_linear" x1="1222" y1="2999" x2="0" y2="2999" gradientUnits="userSpaceOnUse">
<stop stop-color="#2F2440"/>
<stop offset="1" stop-color="white" stop-opacity="0"/>
</linearGradient>
</defs>
</svg>
