<svg width="34" height="20" viewBox="0 0 34 20" fill="none" xmlns="http://www.w3.org/2000/svg">
<path fill-rule="evenodd" clip-rule="evenodd" d="M33.2201 1.35429C33.4553 0.574286 33.2201 0 32.0939 0H28.3752C27.4289 0 26.9926 0.495714 26.756 1.04286C26.756 1.04286 24.8648 5.60857 22.186 8.57429C21.319 9.43429 20.9251 9.70714 20.452 9.70714C20.2154 9.70714 19.8598 9.43429 19.8598 8.65286V1.35429C19.8598 0.417143 19.5992 0 18.8115 0H12.9636C12.3729 0 12.0173 0.434286 12.0173 0.847143C12.0173 1.73429 13.3575 1.94 13.4949 4.43714V9.86286C13.4949 11.0529 13.2781 11.2686 12.805 11.2686C11.5442 11.2686 8.47716 6.68143 6.65678 1.43286C6.30403 0.411428 5.94704 0 4.99648 0H1.27497C0.212496 0 0 0.495714 0 1.04286C0 2.01714 1.26081 6.85714 5.87196 13.2586C8.94606 17.63 13.2739 20 17.2164 20C19.5808 20 19.8726 19.4743 19.8726 18.5671V15.2629C19.8726 14.21 20.0964 14 20.8458 14C21.3983 14 22.3432 14.2743 24.5503 16.3814C27.0719 18.88 27.487 20 28.9065 20H32.6251C33.6876 20 34.2203 19.4743 33.9143 18.4343C33.5771 17.4 32.373 15.8986 30.7764 14.1171C29.9095 13.1029 28.609 12.01 28.2137 11.4629C27.6627 10.7614 27.8199 10.4486 28.2137 9.82429C28.2137 9.82429 32.747 3.50143 33.2187 1.35429H33.2201Z" fill="white"/>
</svg>
