<svg width="44" height="26" viewBox="0 0 44 26" fill="none" xmlns="http://www.w3.org/2000/svg">
<path fill-rule="evenodd" clip-rule="evenodd" d="M42.9917 1.90463C43.296 0.903626 42.9917 0.166626 41.5342 0.166626H36.7217C35.497 0.166626 34.9323 0.802793 34.6262 1.50496C34.6262 1.50496 32.1787 7.36429 28.7118 11.1703C27.5898 12.274 27.0802 12.6241 26.4678 12.6241C26.1617 12.6241 25.7015 12.274 25.7015 11.2711V1.90463C25.7015 0.701959 25.3642 0.166626 24.3448 0.166626H16.7768C16.0123 0.166626 15.5522 0.723959 15.5522 1.25379C15.5522 2.39229 17.2865 2.65629 17.4643 5.86096V12.824C17.4643 14.3511 17.1838 14.628 16.5715 14.628C14.9398 14.628 10.9707 8.74113 8.61483 2.00546C8.15833 0.694626 7.69633 0.166626 6.46617 0.166626H1.65C0.275 0.166626 0 0.802793 0 1.50496C0 2.75529 1.63167 8.96663 7.59917 17.1818C11.5775 22.7918 17.1783 25.8333 22.2805 25.8333C25.3403 25.8333 25.718 25.1586 25.718 23.9945V19.754C25.718 18.4028 26.0077 18.1333 26.9775 18.1333C27.6925 18.1333 28.9153 18.4853 31.7717 21.1895C35.035 24.396 35.5722 25.8333 37.4092 25.8333H42.2217C43.5967 25.8333 44.286 25.1586 43.89 23.824C43.4537 22.4966 41.8953 20.5698 39.8292 18.2836C38.7072 16.982 37.0242 15.5795 36.5127 14.8773C35.7995 13.9771 36.003 13.5756 36.5127 12.7745C36.5127 12.7745 42.3793 4.66013 42.9898 1.90463H42.9917Z" fill="white"/>
</svg>
